<svg width="400" height="400" viewBox="0 0 300 300" xmlns="http://www.w3.org/2000/svg"><path fill="#585858" d="M132.94 12.84c12.99-6.12 29.2-4.96 41.05 3.21 7.4 4.14 12.14 11.35 16.43 18.41 10.88-4.17 23.28-6.75 34.47-2.27 12.46 4.27 22.39 14.67 27.01 26.9 2.03 6.96 1.96 14.3 2.63 21.46 10.55 3.04 20.24 9.35 26.31 18.63 5.44 8.3 7.58 18.58 6.67 28.4-.84 9.89-6.48 18.42-12.02 26.33 3.49 5.55 7.57 10.98 9.03 17.5 4.12 14.67-.26 31.29-11.19 41.91-6.09 7.09-15.42 9.84-23.96 12.7 2.38 21.54-13.74 43.84-35.47 46.86-9.27 2.42-18.67-.2-27.29-3.62-7.07 10.76-18.14 19.58-31.21 21.13-17.67 3.25-36.52-6.42-44.95-22.15-9.9 2.07-20.32 4.11-30.34 1.67-10.81-3.52-20.83-10.64-26.24-20.83-4.85-8.03-4.5-17.79-5.19-26.82-7.81-2.88-15.68-6.33-21.76-12.19-7.63-8.12-12.76-18.82-12.77-30.11-1.13-11.63 5.12-22.1 11.73-31.07-5.92-8.2-11.44-17.29-11.02-27.87-1.84-20.86 14.39-40.51 34.58-44.5.6-7.93 1-16.25 4.63-23.5 6.01-12.53 17.87-23.11 32.1-24.66 8.86-2.91 17.49 2.14 26.26 2.08 6.07-6.65 11.76-14.25 20.51-17.6z"/></svg>