<svg width="400" height="400" viewBox="0 0 300 300" xmlns="http://www.w3.org/2000/svg"><path fill="#575757" d="M168.83 80.35c20.17-23.12 40.11-46.44 60.34-69.5-3.32 25.95-8.85 51.57-13.08 77.38 23.11-4.65 46.03-10.24 69.11-15.11-19.24 16.27-40.1 30.52-59.53 46.56 22.56 3.44 45.34 5.6 67.77 9.82-20.16 10.34-40.28 20.77-60.52 30.96 14.23 13.37 29.38 25.73 43.61 39.1-21.24-1.98-42.38-4.88-63.52-7.63 12.97 26.44 26.65 52.54 39.08 79.25-26.68-18.55-52.43-38.42-78.93-57.22-21.92 24.92-42.85 50.71-65.14 75.29 9.86-31.48 20.01-62.86 30.09-94.27-16.11 8.21-31.94 16.95-48.1 25.03-15.74 7.97-30.98 16.95-47.09 24.17 21.55-23.47 44.34-45.79 65.52-69.59-32.97-5.12-66.09-9.54-98.88-15.7 29.75-7.08 60.13-11.47 89.73-19.18-17.57-13.41-35.5-26.37-52.56-40.42 21.77 1.54 43.55 2.92 65.3 4.77C95.89 79.18 78.39 55.2 62.7 30.02c27.28 18.04 54.12 36.74 81.26 54.99 3.33-17.37 5.75-34.91 9.41-52.21 5.41 15.77 9.89 31.84 15.46 47.55z"/></svg>