<svg width="400" height="356" viewBox="0 0 300 267" xmlns="http://www.w3.org/2000/svg"><path fill="#585858" d="M23.84 36.83C35.4 19.64 55.16 7.7 76.06 7.21c14.03-.85 27.86 3.78 39.75 10.98 15.57 10.47 26.88 26.01 34.64 42.9C159.1 42.57 172.12 25 190.99 16c22.93-12.33 53.06-10.08 73.04 6.96 24.18 19.48 31.89 52.8 29.56 82.51-2.35 21.37-15.4 40.07-31.98 53.12-20.16 16.33-43.95 27.47-63.9 44.11-18.29 15.15-35.94 32.03-47.15 53.26-15.3-29.29-41.5-51.24-69.32-68.21-21.84-13.43-45.19-26.28-60.56-47.45C7.34 122.15 4.77 98.24 8.42 76.53c2.63-13.99 6.83-28.12 15.42-39.7z"/></svg>