<svg width="400" height="400" viewBox="0 0 300 300" xmlns="http://www.w3.org/2000/svg"><path fill="#585858" d="M46.83 9.21c23.44 7.43 48.5 8.9 72.86 6.48 10.9-.99 21.29-5.47 32.25-5.57 32.25 8.67 67.18 9.61 99.14-.89 20.42 26.92 34.68 58.98 37.93 92.81 3.47 26.8-1.96 53.86-10.89 79.07-8.68 21.92-20.59 42.88-37.31 59.69-24.23 25.95-56.78 43.31-90.93 52.05-10.83-1.02-20.82-5.95-30.89-9.84-28.94-11.92-54.71-31.39-73.91-56.12-20.29-26.87-32.77-59.44-36.09-92.93C3.53 89.32 20.44 44.64 46.83 9.21z"/></svg>