<svg width="400" height="400" viewBox="0 0 300 300" xmlns="http://www.w3.org/2000/svg"><path fill="#585858" d="M172.96 10.93c8.12-4.53 19.35-3.62 26.03 3.08C210 24.16 214.9 39.23 217.22 53.63c1.66 8.68.67 17.98 4.42 26.18 12.56-.74 23.18-7.88 34.45-12.59 6.65-2.91 13.78.02 19.98 2.65 8.83 4.03 17.97 11.16 18.37 21.72 3.72 18.03-6.65 35.62-20.7 46.13-12.06 9.57-26.45 15.38-40.31 21.78-8.61 4.33-18.75 9.55-21.03 19.83-.88 7.76 4.04 14.78 9.38 19.88 7.03 7.95 18.44 14 19.04 25.89.29 12.4-5.49 23.79-11.33 34.33-6.22 10.33-13.71 20.62-24.56 26.45-9.79 5.78-22.92 7.04-32.86.99-11.02-6.16-17.43-17.58-22.14-28.84-4.65-9.45-8.68-21.51-19.61-25.37-9.95-2.47-19.6 2.5-27.2 8.44-10.67 8.29-16.33 20.95-25.19 30.86-7.02 7.54-16.88 13.42-27.54 12.56-9.22.12-17.32-5.15-24.34-10.54-16.63-13.64-22.37-38.51-14.37-58.3A158.664 158.664 0 0 1 39 170.99c8.35-9.98 19.68-17.01 27.66-27.33 3.38-5.84 4.42-13.18 2.26-19.65-2.9-13.41-13.51-23.85-15.26-37.63-1.75-8.45 1.32-17.06 5.49-24.3 3.76-6.8 11.47-10.21 18.95-10.8 13.58-.92 27.02 2.56 40.61 1.53 9.7-.88 19.44-4.67 26.07-12.01 9.61-9.74 15.23-23.78 28.18-29.87z"/></svg>