<svg width="400" height="400" viewBox="0 0 300 300" xmlns="http://www.w3.org/2000/svg"><path fill="#585858" d="M67.29 102.29c25.93-32.23 53.35-63.23 81.74-93.3 36.2 38.34 71.17 77.98 102.56 120.4 13.1 18.44 26.15 37.24 34.75 58.29 3.83 9.6 4.97 20.52 1.96 30.5-4.65 16.72-16.15 30.91-29.69 41.41-22.44 16.58-49.58 26.16-77.08 29.91-25.79 4.05-52.34 3.47-77.86-2.11-24.02-5.25-47.73-14.48-66.95-30.11-14.4-11.17-25.52-27.48-28.23-45.72-2.79-14.96 5.1-28.75 11.58-41.52 13.39-24.11 30.06-46.23 47.22-67.75z"/></svg>