<svg width="400" height="400" viewBox="0 0 300 300" xmlns="http://www.w3.org/2000/svg"><path fill="#585858" d="M163.66 11.66c18.65-8.27 41.7 3.6 48.2 22.39 1.91 6.39 1.93 13.11 2.37 19.71 11.43-5.65 25.5-10.65 37.75-4.71 12.63 5.56 18.42 19.94 18.88 32.98.87 8.98-1.96 17.69-4.55 26.16 12.28 2.28 24.32 10.78 27.09 23.46 4.53 21.15-1.24 44.92-16.08 60.89 1.67 16.15 5.13 34.15-3.96 48.8-8.21 15.6-29.97 21.06-44.76 11.76-2.42 13.04-6.01 28.01-18.61 34.91-12.04 6.61-26.91 1.03-36.26-7.72-7.6-5.91-11.78-14.72-15.3-23.41-4.82 10.09-10.15 20.37-18.78 27.77-5.41 4.03-12.9 7-19.55 4.32-14.5-6.05-23.72-20.93-25.65-36.17-10.88 4.39-22.59 9.5-34.49 6.25-12.25-2.6-20.92-13.65-23.51-25.46-1.38-6.34-1.29-12.87-1-19.32-6.17-1.72-12.83-3.46-17.31-8.4-11.93-11.99-13.9-30.76-10.8-46.65 1.79-9.94 8.43-17.64 15.31-24.56-8.29-14.17-9.89-31.67-5.37-47.35 4.58-12.08 13.17-24.14 26.14-27.87 7.7-2.95 15.4 1.01 22.18 4.46-1.45-10.48 1.06-21.81 9.1-29.2 14.3-12.86 38.25-16.59 54.26-4.65 4.99 3.02 6.53 8.88 8.83 13.84 4.91-13.06 12.29-26.63 25.87-32.23z"/></svg>