<svg width="400" height="400" viewBox="0 0 300 300" xmlns="http://www.w3.org/2000/svg"><path fill="#585858" d="M10.76 8.11c35.99-.19 71.99-.17 107.98-.02 11.42 21.42 22.86 42.84 34.54 64.12 11.48-21.26 22.67-42.7 33.76-64.18 35.32-.06 70.64-.04 105.96-.01-23.11 45.17-46.15 90.39-69.64 135.36-2.19 3.67 1.31 7.32 2.51 10.68 23.43 45.29 46.65 90.68 70.18 135.93-36.66.02-73.32.02-109.98 0-11.67-22.44-23.39-44.88-35.66-66.99-11.49 22.49-23.82 44.55-35.48 66.96-35.99.08-71.98.05-107.97.02 24.78-47.97 49.54-95.94 74.08-144.03-9.26-16.68-17.3-34-26.18-50.88-10.06-18.46-18.63-37.7-28.77-56.12-5.35-10.16-10.4-20.47-15.33-30.84z"/></svg>