<svg width="400" height="400" viewBox="0 0 300 300" xmlns="http://www.w3.org/2000/svg"><path fill="#585858" d="M139.02 27.55c4.05-6.66 7.62-13.63 12.18-19.97 3.88 6.67 7.61 13.44 11.76 19.95 5.6-5.56 10.78-11.53 15.81-17.61 2.75 7.4 5.47 14.83 7.77 22.39 6.56-4.53 12.72-9.6 19.17-14.28.93 7.99 1.94 15.99 3.3 23.92 6.97-3.48 13.95-6.92 21.01-10.22.07 7.85-.43 15.68-1.04 23.5 7.72-1.9 15.39-4 23.02-6.23-1.95 7.74-3.88 15.48-6 23.18 8-.2 15.99-.69 23.97-1.22-3.57 7.15-7.11 14.32-10.36 21.62 7.69.76 15.35 1.74 23 2.82-4.32 6.63-9.23 12.84-13.92 19.21 7.46 2.66 14.89 5.37 22.39 7.91-5.75 5.31-11.95 10.16-17.18 16.01 6.35 4.55 13.45 7.91 20.15 11.9-6.65 4.32-14.79 6.85-20.17 12.88 5.62 5.2 11.5 10.12 17.22 15.21-7.55 2.34-14.93 5.2-22.34 7.92 4.75 6.23 9.51 12.47 13.87 19-7.7.9-15.38 1.88-23.07 2.85 3.19 7.4 6.86 14.58 10.41 21.82-8.02-.34-16.03-.83-24.04-1.16 2.1 7.67 4.1 15.36 6.05 23.07-7.66-2.12-15.33-4.21-23.03-6.19.23 7.83.83 15.64 1.07 23.47-7.04-3.29-13.99-6.78-20.96-10.22-1.04 8-2.14 15.99-3.24 23.99-6.33-4.78-12.54-9.7-19-14.31-2.78 7.45-5.07 15.1-8.21 22.41-5-6.09-10.21-12-15.62-17.73-4.06 6.66-7.63 13.63-12.19 19.98-3.89-6.68-7.62-13.45-11.77-19.96-5.65 5.53-10.66 11.66-15.74 17.71-2.79-7.43-5.52-14.88-7.83-22.48-6.56 4.53-12.72 9.6-19.17 14.28-.93-8-1.94-15.99-3.3-23.92-6.97 3.47-13.95 6.92-21.01 10.22-.07-7.85.43-15.66 1.04-23.48-7.68 2.03-15.35 4.09-23.01 6.2 1.94-7.74 3.86-15.48 5.99-23.17-8 .2-15.99.69-23.97 1.22 3.57-7.15 7.11-14.32 10.36-21.62-7.69-.76-15.36-1.75-23.01-2.82 4.3-6.56 9.04-12.8 13.94-18.91-7.42-2.9-14.89-5.65-22.34-8.46 5.81-5.14 11.95-9.96 17.13-15.75-6.35-4.55-13.46-7.92-20.16-11.91 6.65-4.32 14.78-6.86 20.17-12.88-5.61-5.19-11.47-10.11-17.2-15.17 7.49-2.54 14.92-5.25 22.37-7.9-4.77-6.26-9.55-12.52-13.92-19.06 7.69-.9 15.38-1.88 23.07-2.85-3.19-7.4-6.86-14.58-10.41-21.82 8.02.34 16.02.83 24.04 1.16-2.1-7.67-4.11-15.37-6.05-23.07 7.66 2.14 15.33 4.2 23.02 6.26-.21-7.86-.82-15.69-1.06-23.54 7.04 3.29 13.99 6.77 20.96 10.22 1.04-8 2.13-16 3.24-23.99 6.33 4.78 12.55 9.7 19.01 14.31 2.74-7.43 5.12-14.99 8.05-22.35 5.15 5.98 10.35 11.92 15.78 17.66z"/></svg>