<svg width="400" height="400" viewBox="0 0 300 300" xmlns="http://www.w3.org/2000/svg"><path fill="#585858" d="M8.95 7.74c5.58.28 11.27-.24 16.81.64 4.02 2.46 6.59 7.93 12.29 6.67 4.15.23 6.71-3.6 9.01-6.45 5.57-.28 11.15-.49 16.73-.63 2.68 3.67 5.76 8.38 11.25 7.13 4.67.69 7.6-3.51 9.9-6.85 5.25.05 10.6-.69 15.82.09 4 2.51 6.59 7.97 12.29 6.71 4.15.23 6.71-3.6 9.01-6.45 5.57-.28 11.15-.49 16.73-.63 2.68 3.67 5.76 8.38 11.25 7.13 4.67.69 7.6-3.51 9.9-6.85 5.25.05 10.6-.69 15.82.09 4 2.51 6.58 7.97 12.29 6.71 4.15.23 6.71-3.6 9.01-6.45 5.57-.28 11.14-.49 16.73-.63 2.68 3.67 5.76 8.38 11.25 7.13 4.67.69 7.6-3.51 9.9-6.85 5.25.05 10.6-.69 15.82.09 4 2.51 6.58 7.97 12.29 6.71 4.15.23 6.72-3.61 9.01-6.47 6.66-.32 13.32-.52 19.98-.7-.07 5.2-.15 10.39-.24 15.58-4.44 1.82-10.61 4.14-8.94 10.49 1.87 3.27 5.62 4.56 8.87 6l.04 13.28c-3.41 1.38-6.66 3.1-9.83 4.95 0 6.19 4.65 9.75 9.89 11.46-.06 3.26-.17 9.77-.23 13.03-3.98 1.88-10.69 4.15-8.7 10.28 1.8 3.3 5.59 4.55 8.82 6 .02 3.36.07 10.07.09 13.42-3.4 1.39-6.69 3.03-9.89 4.81.04 6.19 4.93 9.24 9.72 11.69l.12 13.18c-3.08 1.34-6.46 2.57-8.57 5.33-2.53 6.35 4.21 8.72 8.54 10.56.02 3.36.05 10.07.07 13.42-5.17 1.76-9.9 5.13-9.49 11.49 3.16 1.56 6.33 3.12 9.52 4.62-.03 3.4-.08 10.19-.11 13.59-4.15 1.83-10.37 3.86-8.98 9.91 2.56 2.73 5.76 4.72 8.96 6.6.15 4.19.29 8.4.43 12.6a512.65 512.65 0 0 0-10.54 6.27c.76 5.56 5.15 8.99 10.12 10.51.09 4.89.16 9.78.22 14.68-4.27 1.92-10.86 3.98-9.04 10.32 1.81 3.27 5.57 4.54 8.78 5.99.1 3.52.31 10.57.42 14.09-6.58-.04-13.16-.1-19.74-.18-2.71-3.66-6-8.14-11.4-6.91-4.15-.21-6.71 3.6-9.01 6.46-5.58.27-11.15.48-16.73.63-2.68-3.67-5.76-8.39-11.25-7.13-4.67-.69-7.6 3.51-9.9 6.85-5.26-.06-10.61.68-15.82-.09-4-2.51-6.59-7.97-12.29-6.71-4.15-.23-6.71 3.6-9.01 6.45-5.57.27-11.15.48-16.73.63-2.68-3.67-5.76-8.39-11.25-7.13-4.67-.69-7.6 3.51-9.9 6.85-5.25-.06-10.61.68-15.82-.09-4-2.51-6.59-7.97-12.29-6.71-4.15-.23-6.71 3.6-9.01 6.45-5.57.27-11.15.48-16.73.63-2.68-3.67-5.76-8.39-11.25-7.13-4.66-.69-7.59 3.5-9.89 6.82-5.57-.05-11.25.83-16.78-.06-2.37-2.05-3.99-4.84-6.01-7.19-5.73-.3-11.47 1.73-14.35 6.93-5.99.29-11.99.53-17.99.7.09-3.59.27-10.76.35-14.35 3.4-1.38 6.64-3.11 9.8-4.96-.06-6.15-4.87-9.49-9.99-11.21.02-4.93.06-9.85.12-14.77 4.22-1.66 10.45-3.71 9.03-9.77-2.62-2.86-5.89-5.01-9.23-6.94.23-4.17-.53-8.47.51-12.55 2.94-2.52 6.53-4.15 9.74-6.28-.77-5.45-5.13-8.73-9.99-10.22l-.12-13.59c3.3-1.53 6.57-3.12 9.84-4.72.03-6.16-4.62-9.66-9.8-11.37l.08-13.43c3.06-1.34 6.42-2.57 8.53-5.32 2.53-6.37-4.23-8.74-8.57-10.57l.12-13.19c2.87-1.95 6.5-3.19 8.5-6.16 2.63-6.5-4.33-8.57-8.62-10.5V98.77c3.41-1.38 6.67-3.11 9.85-4.97-.29-5.73-4.38-9.74-9.69-11.14-.06-3.25-.17-9.77-.23-13.02 4.4-1.93 10.63-4.22 8.97-10.59-1.87-3.27-5.62-4.56-8.87-6l-.04-13.28c3.41-1.38 6.66-3.1 9.83-4.95-.01-6.15-4.6-9.72-9.81-11.44-.11-5.21-.21-10.42-.3-15.64z"/></svg>