<svg width="400" height="400" viewBox="0 0 300 300" xmlns="http://www.w3.org/2000/svg"><path fill="#585858" d="M105.09 96.09c15.59-27.95 30.77-56.14 46.47-84.04 14.95 27.46 30.26 54.73 45.17 82.22 1.33 2.21 2.81 4.82 5.65 5.19 31.31 6.13 62.65 12.17 94.03 17.98-17.75 20.81-37.21 40.12-55.76 60.21-4.9 5.72-13.9 11.55-10.77 20.38 3.81 30.05 7.85 60.08 11.16 90.19-28.7-12.77-56.93-26.6-85.43-39.82-2.34-1.05-5.05-1.44-7.41-.24-28.84 13.18-57.21 27.45-86.31 40.04 2.75-29.3 6.96-58.46 10.66-87.65-.3-3.69 2.57-8.51-.23-11.82-21.54-24.07-44.74-46.68-65.79-71.21 29.77-5.34 59.39-11.5 89.17-16.86 3.29-.79 7.73-1.01 9.39-4.57z"/></svg>