<svg width="400" height="400" viewBox="0 0 300 300" xmlns="http://www.w3.org/2000/svg"><path fill="#585858" d="M148.42 10.44c6.85-2.18 12.54 2.74 16.87 7.25 40.38 40.63 81.01 81.01 121.46 121.57 5.24 4.37 7.08 12.88 3.1 18.62-5.63 7.29-12.68 13.3-19.09 19.88-35.51 35.5-71.05 70.96-106.47 106.54-3.66 4.01-8.51 7.44-14.29 6.58-5.15-.11-8.76-4.4-12.29-7.57A43806.05 43806.05 0 0 0 17.7 163.29c-4.01-3.66-7.44-8.51-6.58-14.29.11-5.15 4.4-8.76 7.57-12.29C58.78 96.79 98.78 56.77 138.71 16.7c2.83-2.57 5.67-5.82 9.71-6.26z"/></svg>