<svg width="348" height="400" viewBox="0 0 261 300" xmlns="http://www.w3.org/2000/svg"><path fill="#585858" d="M130.43 7.59c15.87 14.29 18.8 36.39 20.62 56.45 9.42-3.65 19.15-6.4 29.13-8.05.43 6.61.9 13.25.56 19.87-1.81 13.8-6.57 26.97-10.83 40.15 12.5-13 26.2-27.09 44.28-31.62 1.96 6.04 2.58 12.38 3.25 18.67 11.22-3.89 22.97-5.58 34.84-5.18-4.65 17.97-16.87 32.57-28.08 46.87 7.01 1.59 13.74 4.16 20.2 7.3-9.03 16.23-25.88 25.15-41.66 33.55 8.89 10.62 18.83 20.3 27.68 30.96-28.49 14.15-62.77 20.08-93.17 8.46-1.51 19.52-4.03 39.16-10.56 57.72-1.3 3.3-2.3 7.37-5.69 9.25-4.4 3.5-10.14 1.39-15.02.31 3.13-6.14 7.49-11.54 10.58-17.69 7.3-15.84 8-33.57 9.53-50.66-30.9 12.86-66.59 7.66-95.6-7.71 9.06-10.33 18.59-20.22 27.87-30.34-15.9-8.27-32.35-17.78-42.1-33.34 6.19-3.92 13.09-6.38 20.19-8.06-11.66-13.91-22.88-28.89-27.94-46.59 11.88-.78 23.66 1.12 34.77 5.22.45-6.35 1.09-12.79 3.54-18.73 18.26 4.71 31.11 19.22 44.18 31.79-7.19-19.2-13.12-39.46-10.32-60.22 9.93 1.65 19.64 4.3 29 8.02 1.67-19.97 4.68-42.44 20.75-56.4z"/></svg>