<svg width="400" height="400" viewBox="0 0 300 300" xmlns="http://www.w3.org/2000/svg"><path fill="#585858" d="M149.33 22.32c10.92-9.42 26.32-16.59 40.8-11.49 15.88 5.97 22.91 22.83 28.04 37.73 13.41.53 27.69 2.26 38.79 10.51 6.96 4.52 11.57 13.61 9.06 21.87-2.51 6.8-7.28 12.71-13.28 16.76-13.98 9.77-28.9 18.09-43.98 26.02 20.72.6 41.43 1.68 62.09 3.42 16.53-1.05 28.72 20.09 20.5 34.2-8.49 13.73-22.89 22.2-37.09 28.99 2.88 12.33 4.11 26.2-2.39 37.6-2.94 5.9-8.44 10.53-14.85 12.17-8.88 1.7-17.95-1.87-24.91-7.25-10.62-7.81-17.83-18.99-25.81-29.27 9.63 19.74 16.72 40.96 17.78 63.04-13.35 8.35-25.89 17.9-38.93 26.71 7.25-16.99 15.14-34.46 14.88-53.32 1.08-12.77-3.41-24.93-8.05-36.56-4.11 18.52-7.75 37.19-13.39 55.32-8.47 12.63-25.83 22.84-40.99 15.66-13.42-6.1-20.95-19.48-27-32.21-12.59.39-26.09 1.93-37.62-4.2-7.94-3.38-15.64-10.67-14.84-20.05.14-7.45 5.22-13.58 9.91-18.91 16.22-15.4 34.5-28.42 53.08-40.79-23.25-1.51-46.46-4.56-69.06-10.33-12.21-1.82-20.43-12.87-24.21-23.82-3.03-8.59 1.61-17.64 8.2-23.06 8.68-7.85 19.84-11.96 30.63-16-.93-9.73-.93-20.04 3.38-29.04C53.91 47.37 61.06 39 71.11 38.1c10.34-1.14 19.34 5.66 26.1 12.67 14.37 15.92 26.92 33.38 38.51 51.39.72-17.38 2.25-34.76 5.7-51.82 2.04-9.49 3.36-19.32 7.91-28.02z"/></svg>