<svg id="Layer_1" enable-background="new 0 0 512.004 512.004" height="512" viewBox="0 0 512.004 512.004" width="512" xmlns="http://www.w3.org/2000/svg"><g><g clip-rule="evenodd" fill-rule="evenodd"><path d="m256.002 237.372c-29.499 0-57.785-1.427-83.994-4.044l-71.991 268.673h311.969l-71.991-268.673c-26.208 2.617-54.494 4.044-83.993 4.044z" fill="#fff2a0"/><path d="m256.002 152.146c61.58 0 111.5-13.721 111.5-30.646 0-4.089-.22-8.127-.649-12.102-6.032-55.888-53.36-99.398-110.851-99.398s-104.819 43.511-110.851 99.398c-.429 3.975-.649 8.013-.649 12.102 0 16.925 49.92 30.646 111.5 30.646z" fill="#66e0f7"/><path d="m367.502 121.5c0 16.925-49.92 30.646-111.5 30.646s-111.5-13.721-111.5-30.646c0-4.089.22-8.127.649-12.102-82.88 11.499-135.149 34.843-135.149 60.36 0 37.342 110.138 67.614 246 67.614s246-30.272 246-67.614c0-25.518-52.269-48.862-135.149-60.36.429 3.975.649 8.013.649 12.102z" fill="#6d91ac"/><path d="m245.587 435.306c22.546 6.041 45.86 9.213 68.818 9.213v-.006c1.341.001 2.682-.509 3.707-1.53 2.05-2.045 2.055-5.366.01-7.417-10.445-10.445-18.333-22.598-25.893-35.395 6.976 1.268 13.944 1.875 21.04 1.875v-.016c1.344.001 2.689-.513 3.712-1.541 2.04-2.048 2.033-5.362-.015-7.401-10.176-10.176-19.077-22.531-24.432-35.961 9.287 2.03 18.511 2.844 27.839.344l-.002-.008c1.063-.285 2.045-.907 2.773-1.843 1.775-2.283 1.362-5.573-.922-7.347-19.078-14.799-25.431-34.551-29.116-46.009-2.331-7.246-4.251-10.656-8.692-11.846s-7.808.803-13.45 5.913c-8.889 8.052-24.192 21.911-47.969 25.251-1.181.104-2.334.608-3.239 1.51-2.051 2.045-2.055 5.366-.01 7.417 6.827 6.828 15.224 10.736 24.281 13.621-11.255 8.875-24.995 15.091-38.765 18.826-1.453.274-2.782 1.156-3.578 2.537-1.448 2.512-.585 5.722 1.926 7.17 6.145 3.548 12.484 6.506 19.159 8.896-12.88 7.266-25.723 13.816-39.905 17.648-1.383.31-2.637 1.176-3.4 2.5-1.448 2.512-.585 5.722 1.926 7.17 19.879 11.479 41.654 20.389 64.197 26.429z" fill="#88df8e"/></g><g><path d="m375.693 100.575c-9.947-57.059-59.83-100.575-119.691-100.575-15.525 0-30.657 2.895-44.976 8.603-5.13 2.045-7.63 7.862-5.585 12.993 2.046 5.13 7.862 7.632 12.993 5.585 11.95-4.765 24.59-7.181 37.567-7.181 55.893 0 101.378 45.412 101.5 101.276-.848 1.862-7.647 7.871-28.851 13.181-19.796 4.958-45.597 7.689-72.649 7.689s-52.854-2.73-72.649-7.689c-21.202-5.311-28.003-11.319-28.851-13.181.028-12.898 2.443-25.459 7.18-37.339 2.045-5.13-.455-10.947-5.586-12.993s-10.946.456-12.992 5.585c-3.108 7.796-5.375 15.835-6.802 24.047-43.795 6.626-136.3 25.775-136.3 69.182 0 23.309 27.457 43.176 79.401 57.453 23.347 6.417 50.453 11.407 79.92 14.82l-68.964 257.382c-1.43 5.335 1.736 10.818 7.071 12.248.867.232 1.737.343 2.594.343 4.415 0 8.456-2.947 9.653-7.414l69.802-260.505c24.427 2.162 50.17 3.288 76.523 3.288 26.354 0 52.097-1.126 76.524-3.288l69.802 260.505c1.197 4.468 5.237 7.414 9.653 7.414.856 0 1.728-.111 2.594-.343 5.335-1.429 8.501-6.913 7.071-12.248l-68.965-257.382c29.467-3.412 56.573-8.403 79.919-14.82 51.945-14.277 79.401-34.145 79.401-57.453.002-43.412-92.527-62.561-136.307-69.183zm51.607 107.351c-45.624 12.54-106.459 19.446-171.298 19.446s-125.673-6.906-171.298-19.446c-47.757-13.126-64.702-28.765-64.702-38.168 0-12.519 30.688-35.395 114.505-48.671 0 .138-.005.275-.005.412 0 32.085 76.373 40.646 121.5 40.646s121.5-8.561 121.5-40.646c0-.138-.005-.275-.005-.412 83.818 13.275 114.505 36.152 114.505 48.671 0 9.404-16.945 25.042-64.702 38.168z"/><path d="m256.01 184.759h-.008c-5.522 0-9.996 4.477-9.996 10s4.481 10 10.004 10 10-4.477 10-10-4.478-10-10-10z"/><path d="m183.678 179.805h-.007c-5.522 0-9.997 4.477-9.997 10s4.481 10 10.004 10 10-4.477 10-10-4.478-10-10-10z"/><path d="m113.435 161.305h-.007c-5.522 0-9.997 4.477-9.997 10s4.481 10 10.004 10 10-4.477 10-10-4.478-10-10-10z"/><path d="m328.326 179.805c-5.522 0-10 4.477-10 10s4.478 10 10 10h.008c5.522 0 9.996-4.477 9.996-10s-4.481-10-10.004-10z"/><path d="m398.569 161.305c-5.522 0-10 4.477-10 10s4.478 10 10 10h.008c5.522 0 9.996-4.477 9.996-10s-4.481-10-10.004-10z"/><path d="m177.16 52.658c5.522 0 10-4.477 10-10s-4.478-10-10-10h-.008c-5.522 0-9.996 4.477-9.996 10s4.482 10 10.004 10z"/><path d="m328.35 340.372c-16.634-12.904-22.325-30.598-25.726-41.17-1.877-5.835-5.019-15.601-15.622-18.443-10.609-2.841-18.209 4.046-22.752 8.16-8.172 7.402-21.834 19.776-42.471 22.735-3.429.38-6.645 1.92-9.085 4.357-2.884 2.875-4.475 6.701-4.48 10.772-.006 4.072 1.574 7.903 4.46 10.796 3.249 3.249 6.748 5.893 10.256 8.062-6.157 3.078-12.891 5.638-20.014 7.588-4.17.928-7.758 3.557-9.896 7.268-2.035 3.529-2.573 7.64-1.517 11.574 1.058 3.935 3.584 7.222 7.106 9.251.483.279.966.554 1.449.825-6.313 2.94-12.868 5.519-19.655 7.364-4.037.984-7.526 3.596-9.604 7.2-2.035 3.529-2.573 7.64-1.516 11.575 1.057 3.931 3.58 7.216 7.105 9.25 17.807 10.281 37.048 18.565 56.997 24.669l-6.036 22.526c-1.43 5.335 1.736 10.818 7.071 12.248.867.232 1.737.343 2.594.343 4.415 0 8.456-2.947 9.653-7.414l6.036-22.526c20.33 4.689 41.138 7.136 61.701 7.136.187 0 .371-.005.555-.015 3.857-.137 7.467-1.701 10.214-4.441 5.952-5.936 5.965-15.607.02-21.567-5.059-5.059-9.527-10.66-13.593-16.459.873.011 1.764.046 2.619-.035 3.724-.227 7.19-1.788 9.849-4.456 5.925-5.952 5.904-15.616-.031-21.528-5.383-5.383-10.089-11.123-13.99-17.032 4.121-.125 8.476-.665 12.914-1.854.217-.058.43-.123.64-.194 2.961-.932 5.522-2.713 7.44-5.182 2.496-3.213 3.592-7.207 3.085-11.244-.507-4.039-2.557-7.639-5.776-10.139zm-45.105 20.46c4.204 10.542 10.577 20.969 18.681 30.634-2.645-.277-5.271-.654-7.908-1.133-3.852-.699-7.755.912-9.993 4.122-2.237 3.211-2.396 7.433-.405 10.803 5.705 9.658 12.012 19.692 19.801 29.014-15.23-.686-30.518-2.806-45.535-6.225l4.441-16.574c1.43-5.335-1.736-10.818-7.071-12.248-5.336-1.43-10.817 1.737-12.247 7.071l-4.441 16.574c-14.713-4.547-29.011-10.354-42.542-17.375 11.413-4.181 21.89-9.717 31.655-15.226 3.409-1.923 5.383-5.658 5.051-9.558-.332-3.899-2.908-7.248-6.594-8.566-2.521-.903-4.985-1.891-7.415-2.973 11.846-4.316 22.585-10.163 31.494-17.189 2.905-2.291 4.309-5.999 3.647-9.639-.661-3.641-3.278-6.618-6.804-7.741-4.893-1.559-8.947-3.26-12.389-5.228 21.017-5.714 34.996-18.377 43.004-25.631 2.105-1.907 3.343-2.846 4.054-3.308.384.755.985 2.188 1.855 4.892 3.313 10.298 9.085 28.247 24.424 43.699-3.965-.017-8.325-.571-13.339-1.667-3.618-.791-7.37.48-9.763 3.302-2.391 2.82-3.031 6.733-1.661 10.17z"/></g></g></svg>